# xmcd CD database file
#
# Track frame offsets:
#	150
#	22235
#	45135
#	65790
#	90748
#	112043
#	136248
#	156273
#	177973
#	197890
#	219168
#	238395
#	255695
#	279908
#	299873
#
# Disc length: 4235 seconds
#
# Revision: 0
# Processed by: cddbd v1.5.1PL0 Copyright (c) Steve Scherf et al.
# Submitted via: CDex 1.51
#
DISCID=e910890f
DTITLE=aosis - G Presents Lover's Collection
DYEAR=2004
DGENRE=JPop
TTITLE0=Driving Home For Christmas
TTITLE1=Leiloca
TTITLE2=太陽の接吻
TTITLE3=Love Island
TTITLE4=Ready To Go
TTITLE5=Sushi and White Wine
TTITLE6=Route 66
TTITLE7=10 Cents A Dance
TTITLE8=Mona Lisa
TTITLE9=Silent Night
TTITLE10=Leaving On A Jet Plane
TTITLE11=This Christmas Day
TTITLE12=When I Fall In Love
TTITLE13=breezy
TTITLE14=Christmas Eve
EXTD=YEAR: 2004
EXTT0=
EXTT1=
EXTT2=
EXTT3=
EXTT4=
EXTT5=
EXTT6=
EXTT7=
EXTT8=
EXTT9=
EXTT10=
EXTT11=
EXTT12=
EXTT13=
EXTT14=
PLAYORDER=
